<svg width="161" height="52" viewBox="0 0 161 52" fill="none" xmlns="http://www.w3.org/2000/svg">
<g id="Frame 65">
<g id="Vector">
<path d="M54.928 23.572C54.8497 23.389 55.1369 23.6504 54.928 23.572C55.0064 23.7549 54.7438 23.9877 54.6654 24.1968C54.1432 25.3728 54.9408 24.8096 53.2082 26.5058C52.8981 26.8093 51.5895 27.9222 50.7802 28.565C50.519 28.7218 48.0486 30.5525 48.0486 30.5525C48.0486 30.5525 47.4416 30.9572 47.1506 31.1523C47.7512 32.0408 48.2081 32.9947 48.5215 34.014C48.8348 35.0332 48.9915 36.1047 48.9915 37.2285C48.9915 38.9534 48.6129 40.626 47.8556 42.2463C47.1244 43.8928 46.093 45.3694 44.7612 46.6761C43.4034 48.009 41.7974 49.0544 39.9434 49.8123C37.985 50.5963 35.8698 50.9883 33.598 50.9883C31.979 50.9883 30.5559 50.5963 29.3286 49.8123C28.1274 49.0282 27.2787 47.9437 26.7826 46.5585C26.2603 45.1473 26.2472 43.6445 26.7434 42.0503C27.2656 40.43 28.284 38.9795 29.7986 37.699C31.6265 36.1832 33.4935 35.0071 35.3998 34.1708C37.3321 33.3084 39.1861 32.5635 40.9618 31.9363C40.1262 30.6557 38.925 29.5189 37.3582 28.5258C35.7915 27.5326 33.7808 26.814 31.3262 26.3697C31.2217 26.3697 31.1042 26.3174 30.9737 26.2129C30.8431 26.1083 30.7386 25.9776 30.6603 25.8208C30.6081 25.664 30.6081 25.5072 30.6603 25.3504C30.7386 25.1675 30.9084 25.0107 31.1695 24.88C32.0573 24.488 33.0366 23.7432 34.1072 22.6455C35.2039 21.5217 36.1701 20.215 37.0057 18.7253C37.8413 17.1834 38.455 15.6676 38.8467 14.1779C39.2384 12.6621 39.3559 11.3162 39.1992 10.1402C38.9903 8.54597 38.5203 7.48752 37.7891 6.96483C37.0841 6.44214 36.2746 6.27227 35.3606 6.45521C34.4728 6.61202 33.5588 7.0563 32.6188 7.78807C31.6787 8.4937 30.8823 9.30386 30.2294 10.2186C29.3416 11.473 28.506 12.9758 27.7226 14.7268C26.9653 16.4778 26.2734 18.4771 25.6466 20.7246C25.0983 22.6324 24.6413 24.4749 24.2757 26.2521C23.9101 28.0031 23.6229 29.5711 23.414 30.9563C23.2051 32.3153 23.0615 33.4129 22.9831 34.2492C22.9048 35.0594 22.8656 35.4775 22.8656 35.5037C22.8134 35.8173 22.6437 36.1309 22.3564 36.4445C22.0692 36.732 21.7167 36.9803 21.2989 37.1893C20.8811 37.4245 20.4371 37.5944 19.9671 37.699C19.4971 37.8035 19.0532 37.8166 18.6354 37.7382C18.2437 37.6597 17.9042 37.4899 17.617 37.2285C17.3558 36.9672 17.2122 36.5621 17.1861 36.0133C17.1861 35.9871 17.1469 35.6213 17.0686 34.9156C17.0164 34.21 16.9511 33.2692 16.8727 32.0931C16.7944 30.8909 16.7161 29.5189 16.6377 27.9769C16.5594 26.4089 16.4941 24.7624 16.4419 23.0375C16.3897 21.182 16.3505 19.4571 16.3244 17.8629C16.3244 16.2687 16.3505 14.7921 16.4027 13.4331C15.9327 13.5899 15.4496 13.7467 14.9534 13.9035C14.4834 14.0342 14.0003 14.1779 13.5042 14.3347C11.9635 14.8052 10.5012 15.2887 9.11723 15.7852C7.73325 16.2818 6.50595 16.8829 5.43532 17.5885C4.26025 18.3464 3.39852 19.2088 2.85015 20.1758C2.3279 21.1166 2.06677 22.2143 2.06677 23.4687C2.06677 23.6778 1.98843 23.8608 1.83175 24.0176C1.67508 24.1744 1.49229 24.2528 1.28338 24.2528C1.07448 24.2528 0.891692 24.1744 0.735015 24.0176C0.578338 23.8608 0.5 23.6778 0.5 23.4687C0.5 20.4371 1.85787 18.0328 4.5736 16.2556C5.74868 15.4977 7.06737 14.8574 8.52969 14.3347C10.0181 13.8121 11.5196 13.3155 13.0342 12.8451C13.6348 12.6621 14.2092 12.4923 14.7576 12.3355C15.3321 12.1525 15.9066 11.9565 16.481 11.7474C16.6377 8.48063 16.9902 6.06319 17.5386 4.49512C17.9303 3.21454 18.5831 2.18223 19.4971 1.39819C20.3066 0.666428 21.2205 0.222142 22.2389 0.0653361C23.0484 -0.0653361 23.7926 0 24.4716 0.261344C25.1766 0.496554 25.7511 0.888571 26.195 1.43739C26.3517 1.62034 26.4953 1.85555 26.6259 2.14302C26.7826 2.4305 26.887 2.78332 26.9392 3.20147C26.9915 3.59349 26.9784 4.06391 26.9001 4.61273C26.8217 5.13542 26.6389 5.72344 26.3517 6.37681C25.9078 7.39605 25.3072 8.28462 24.5499 9.04252C23.7926 9.77429 22.944 10.4276 22.0039 11.0026C21.9256 12.3616 21.8733 13.8121 21.8472 15.354C21.8211 16.8959 21.8211 18.4509 21.8472 20.019C21.8733 21.5871 21.9125 23.1421 21.9647 24.684C22.017 26.1998 22.0822 27.6111 22.1606 28.9178C22.3956 27.6111 22.6698 26.2259 22.9831 24.7624C23.2965 23.2727 23.6751 21.77 24.119 20.2542C25.4508 15.6545 27.0698 12.0088 28.976 9.31693C31.4306 5.84105 34.2769 4.10311 37.5149 4.10311C39.9956 4.10311 41.8627 4.75647 43.1161 6.06319C44.2912 7.23924 44.8787 8.82038 44.8787 10.8066C44.8787 12.4531 44.5001 14.191 43.7428 16.0204C43.0117 17.7714 42.0324 19.431 40.8051 20.999C40.0479 21.9137 39.2645 22.7239 38.455 23.4295C37.6716 24.109 36.8621 24.6709 36.0265 25.1152C37.2016 25.3243 38.2853 25.5595 39.2775 25.8208C41.3927 26.4481 43.2206 27.3628 44.7612 28.565C45.0224 28.774 45.2574 28.9962 45.4663 29.2314C45.7013 29.4405 45.9233 29.6626 46.1322 29.8978C47.4378 29.2706 49.1615 28.1245 49.6673 27.7198C53.107 25.2918 54.8268 22.4591 54.8268 22.4591C54.8268 22.7123 55.2918 22.6111 54.8268 22.4591C55.0096 22.3807 54.7191 23.4674 54.928 23.572ZM24.9024 5.74958C25.2941 4.88714 25.4639 4.18151 25.4116 3.63269C25.3855 3.08387 25.2419 2.75718 24.9808 2.65265C24.7196 2.52197 24.3932 2.63958 24.0015 3.00546C23.6098 3.37134 23.2573 4.02471 22.944 4.96555C22.7612 5.48823 22.6045 6.08933 22.4739 6.76882C22.3695 7.42218 22.265 8.16702 22.1606 9.00332C22.7612 8.55903 23.2965 8.07555 23.7665 7.55286C24.2366 7.00403 24.6152 6.40294 24.9024 5.74958ZM28.271 46.0489C28.4016 46.4148 28.6105 46.7937 28.8977 47.1858C29.211 47.5778 29.5636 47.9306 29.9553 48.2442C30.3731 48.5578 30.8039 48.8061 31.2478 48.989C31.7179 49.172 32.1749 49.2242 32.6188 49.1458C34.3944 48.8322 35.922 48.2703 37.2016 47.4602C38.4811 46.6761 39.5256 45.7484 40.3351 44.6768C41.1707 43.6053 41.7844 42.4554 42.1761 41.2271C42.5678 39.9988 42.7636 38.8097 42.7636 37.6597C42.7636 36.9541 42.6853 36.2354 42.5286 35.5037C42.3719 34.7719 42.1238 34.0401 41.7844 33.3084C40.8704 33.622 39.9434 33.9617 39.0034 34.3276C38.0633 34.6674 37.1363 35.0594 36.2223 35.5037C35.3084 35.9218 34.3944 36.4053 33.4805 36.9541C32.5665 37.5029 31.6787 38.1432 30.817 38.875C29.5897 39.8942 28.741 41.0442 28.271 42.3247C27.8271 43.6053 27.8271 44.8467 28.271 46.0489Z" fill="#121212"/>
<path d="M149.629 26.516L149.841 26.2732C151.116 27.7907 152.694 28.5191 155.092 28.5191C158.127 28.5191 160.099 27.3354 160.099 25.6358C160.099 21.9331 150.569 23.1471 150.569 17.593C150.569 15.0436 152.603 13.4047 155.699 13.4047C156.943 13.4047 158.521 13.6778 159.948 14.5883L159.796 14.8918C158.4 14.042 156.852 13.7689 155.638 13.7689C152.785 13.7689 151.267 15.2864 151.267 16.6521C151.267 20.1121 160.828 19.2319 160.828 24.8467C160.828 27.6389 158.46 28.8833 155.152 28.8833C152.664 28.8833 150.934 28.1852 149.629 26.516Z" fill="#121212"/>
<path d="M126.073 28.7315V13.5564H128.501V19.9603C129.229 16.1969 131.172 13.2529 134.389 13.2529C136.574 13.2529 138.759 14.4062 138.759 17.6537V19.9603C139.488 16.1969 141.43 13.2529 144.647 13.2529C146.832 13.2529 149.017 14.4062 149.017 17.6537V28.7315H146.589V18.3821C146.589 14.8918 145.709 13.6171 144.283 13.6171C140.884 13.6171 138.85 18.3821 138.759 22.9953V28.7315H136.331V18.3821C136.331 14.8918 135.451 13.6171 134.024 13.6171C130.625 13.6171 128.592 18.3821 128.501 22.9953V28.7315H126.073Z" fill="#121212"/>
<path d="M91.2103 26.516L91.4228 26.2732C92.6975 27.7907 94.2757 28.5191 96.6734 28.5191C99.7084 28.5191 101.681 27.3354 101.681 25.6358C101.681 21.9331 92.1512 23.1471 92.1512 17.593C92.1512 15.0436 94.1846 13.4047 97.2804 13.4047C98.5247 13.4047 100.103 13.6778 101.529 14.5883L101.378 14.8918C99.9815 14.042 98.4337 13.7689 97.2197 13.7689C94.3667 13.7689 92.8492 15.2864 92.8492 16.6521C92.8492 20.1121 102.41 19.2319 102.41 24.8467C102.41 27.6389 100.042 28.8833 96.7341 28.8833C94.2453 28.8833 92.5154 28.1852 91.2103 26.516Z" fill="#121212"/>
<path d="M79.4141 26.516L79.6265 26.2732C80.9012 27.7907 82.4794 28.5191 84.8771 28.5191C87.9121 28.5191 89.8849 27.3354 89.8849 25.6358C89.8849 21.9331 80.3549 23.1471 80.3549 17.593C80.3549 15.0436 82.3884 13.4047 85.4841 13.4047C86.7285 13.4047 88.3067 13.6778 89.7331 14.5883L89.5814 14.8918C88.1853 14.042 86.6374 13.7689 85.4234 13.7689C82.5705 13.7689 81.053 15.2864 81.053 16.6521C81.053 20.1121 90.6133 19.2319 90.6133 24.8467C90.6133 27.6389 88.246 28.8833 84.9378 28.8833C82.4491 28.8833 80.7191 28.1852 79.4141 26.516Z" fill="#121212"/>
<path d="M55.7374 28.7315H53.3093V7.48638H55.7374V28.7315Z" fill="#121212"/>
<path d="M106.375 43.1226C106.628 41.3521 108.12 39.9864 111.99 39.7588C113.432 39.6576 114.064 38.7977 114.064 37.7607C114.064 36.2179 112.673 34.3463 110.776 34.3463C108.373 34.3463 105.945 36.6732 105.945 40.5934C105.945 41.5292 106.097 42.3638 106.375 43.1226ZM112.015 40.0623C108.753 40.1634 106.679 41.3774 106.577 43.6284C107.539 45.7276 109.461 46.891 111.282 46.891C113.33 46.891 115.253 45.8541 116.568 43.5778L116.795 43.7043C115.404 45.9047 113.684 47.1946 110.751 47.1946C107.412 47.1946 103.922 44.716 103.922 40.5934C103.922 36.5214 107.412 34.0428 110.751 34.0428C113.558 34.0428 116.087 36.1167 116.087 37.8113C116.087 38.9494 114.823 39.9864 112.015 40.0623Z" fill="#121212"/>
<path d="M103.03 34.2957V46.9416H101.006V41.1498C100.273 44.4883 98.1482 47.1946 95.3408 47.1946C93.5198 47.1946 91.6988 46.2335 91.6988 43.5272V34.2957H93.7221V42.9202C93.7221 45.8288 94.4556 46.891 95.6443 46.891C98.477 46.891 100.905 42.9202 101.006 39.0759V34.2957H103.03Z" fill="#121212"/>
<path d="M88.6628 39.7082V38.8735C87.7523 36.3444 85.9312 34.3463 83.9332 34.3463C81.9857 34.3463 79.9371 36.5467 79.9371 40.4669C79.9371 44.4377 81.9604 46.891 83.9332 46.891C86.6647 46.891 88.6628 44.716 88.6628 39.7082ZM90.6861 34.2957V52H88.6628V42.642C88.0052 45.9047 86.1589 47.1946 83.832 47.1946C80.9488 47.1946 77.9137 44.716 77.9137 40.5934C77.9137 36.5214 80.9488 34.0428 83.832 34.0428C85.906 34.0428 87.6511 35.7374 88.6628 38.0895V34.2957H90.6861Z" fill="#121212"/>
<path d="M74.6734 31.6148C74.6734 30.8813 75.2804 30.2743 76.0392 30.2743C76.7726 30.2743 77.3796 30.8813 77.3796 31.6148C77.3796 32.3482 76.7726 32.9553 76.0392 32.9553C75.2804 32.9553 74.6734 32.3482 74.6734 31.6148ZM75.0022 46.9416V34.2957H77.0256V46.9416H75.0022Z" fill="#121212"/>
<path d="M71.6481 47.1946C69.8777 47.1946 67.9555 46.1576 67.9555 42.1868V34.5486H66.9691V34.2957H67.9555L69.7259 31.463H69.9788V34.2957H73.0138V34.5486H69.9788V42.0856C69.9788 45.4747 70.9399 46.891 72.2551 46.891C72.8368 46.891 73.6461 46.6128 74.3037 45.93L74.4808 46.107C73.722 46.7899 72.9633 47.1946 71.6481 47.1946Z" fill="#121212"/>
<path d="M60.1634 34.0428C63.3502 34.0428 66.8405 36.5214 66.8405 40.5934C66.8405 44.716 63.3502 47.1946 60.1634 47.1946C56.9767 47.1946 53.4864 44.716 53.4864 40.5934C53.4864 36.5214 56.9767 34.0428 60.1634 34.0428ZM60.1634 34.3463C57.9377 34.3463 55.5097 36.6732 55.5097 40.5934C55.5097 44.5642 57.9377 46.891 60.1634 46.891C62.3891 46.891 64.8171 44.4377 64.8171 40.4669C64.8171 36.5467 62.3891 34.3463 60.1634 34.3463Z" fill="#121212"/>
<path d="M67.2254 20.5756C65.4841 20.7661 63.8186 21.581 62.4991 22.7027C64.1106 21.6127 66.1222 21.1365 68.0798 21.2529C66.9225 22.3111 66.079 23.5599 64.7811 24.4382C64.3702 24.7133 63.9267 24.9673 63.4509 25.1578C63.4004 25.1719 63.3499 25.186 63.2995 25.2001C62.9317 25.2954 62.5208 25.3377 62.1531 25.2213C61.7853 25.1049 61.4501 24.798 61.4176 24.4276C61.3852 24.1419 61.515 23.835 61.396 23.5704C61.2121 23.1366 60.5524 23.126 60.2929 22.7239C60.1523 22.5122 60.1631 22.2265 60.2712 22.0042C60.3902 21.7714 60.5849 21.5915 60.7795 21.4328C61.2013 21.0942 61.6772 20.8402 62.1855 20.6603C62.2216 20.6603 62.2576 20.6568 62.2937 20.6497C63.9159 20.3957 65.5815 20.364 67.2254 20.5756Z" fill="#F0AFAC"/>
<path d="M62.1954 20.6381C61.701 20.8223 61.2382 21.0824 60.828 21.4291C60.6387 21.5916 60.4493 21.7758 60.3336 22.0141C60.2285 22.2417 60.2179 22.5342 60.3547 22.7509C60.6071 23.1626 61.2488 23.1735 61.4276 23.6177C61.5433 23.8885 61.417 24.2027 61.4486 24.4953C61.4802 24.8745 61.8062 25.1887 62.1638 25.3079C62.5215 25.4271 62.9212 25.3837 63.2788 25.2862C63.3279 25.2718 63.377 25.2573 63.4261 25.2429C62.7108 25.5571 61.943 25.7413 61.1646 25.6871C60.7228 25.6654 60.0076 25.6329 60.0181 25.0262C60.0286 24.5928 60.3757 24.2569 60.2705 23.8127C60.2074 23.5418 59.8288 23.4985 59.5974 23.4552C59.3239 23.401 59.0083 23.2601 58.9768 22.9784C58.9662 22.8809 58.9978 22.7834 59.0294 22.6859C59.2608 22.0358 59.7762 21.5266 60.3757 21.2124C60.9437 20.909 61.5643 20.7465 62.1954 20.6381Z" fill="#F5D9D9"/>
<path d="M68.0798 19.5855C67.2044 18.1183 65.7911 16.9594 64.2406 16.2364C65.8754 17.2358 67.1305 18.8413 67.8055 20.6381C66.3817 20.0427 64.9051 19.8088 63.5867 19.0114C63.1648 18.7562 62.764 18.4585 62.3949 18.1183C62.3597 18.0829 62.3281 18.0439 62.3 18.0013C62.0679 17.7036 61.857 17.3634 61.8148 16.9806C61.7726 16.5979 61.9097 16.1832 62.2367 15.9918C62.4898 15.843 62.8168 15.8324 63.0066 15.6197C63.323 15.2795 63.0699 14.6734 63.323 14.2801C63.4602 14.0674 63.7238 13.9611 63.977 13.9611C64.2301 13.9611 64.4832 14.0674 64.7047 14.1737C65.1793 14.4183 65.6012 14.7372 65.9598 15.12C65.9809 15.1484 66.002 15.1767 66.0231 15.2051C66.909 16.5554 67.6051 18.0332 68.0798 19.5855Z" fill="#F0AFAC"/>
<path d="M66.0564 15.0323C65.6871 14.6525 65.2527 14.3359 64.7639 14.0932C64.5358 13.9877 64.2752 13.8822 64.0145 13.8822C63.7538 13.8822 63.4823 13.9877 63.3411 14.1987C63.0804 14.5891 63.3411 15.1906 63.0152 15.5282C62.8197 15.7392 62.483 15.7498 62.2224 15.8975C61.8857 16.0874 61.7445 16.4989 61.7879 16.8788C61.8314 17.2586 62.0486 17.5963 62.2875 17.8917C62.3165 17.9339 62.3491 17.9726 62.3853 18.0078C61.7879 17.4802 61.2992 16.8471 61.0059 16.1191C60.843 15.7076 60.5715 15.0429 61.1362 14.8107C61.5272 14.6419 61.9834 14.8213 62.3527 14.5469C62.5699 14.3781 62.4505 14.0194 62.3853 13.7872C62.3201 13.5129 62.3093 13.1753 62.5482 13.0275C62.6351 12.9853 62.7437 12.9642 62.8415 12.9537C63.5366 12.9115 64.2209 13.1858 64.7639 13.5973C65.2853 13.9877 65.6871 14.5047 66.0564 15.0323Z" fill="#F5D9D9"/>
<path d="M70.0056 20.0501C70.9218 18.6048 71.3648 16.8144 71.3748 15.0671C71.1634 17.0085 70.2673 18.8421 68.9887 20.2335C68.9383 18.6587 68.5658 17.1811 68.7269 15.6172C68.7772 15.121 68.8779 14.6141 69.0189 14.1395C69.039 14.0892 69.0625 14.0424 69.0894 13.9993C69.2504 13.6541 69.4719 13.3198 69.774 13.1148C70.0861 12.9207 70.509 12.8776 70.8009 13.0933C71.0224 13.2659 71.1634 13.5679 71.4252 13.6541C71.838 13.8159 72.2608 13.3198 72.7038 13.3953C72.9454 13.4276 73.1367 13.6326 73.2374 13.8699C73.328 14.1071 73.3482 14.3768 73.3381 14.6356C73.318 15.1749 73.2072 15.7034 73.026 16.1996C73.0059 16.2283 72.9857 16.2571 72.9656 16.2859C72.1501 17.688 71.1533 18.95 70.0056 20.0501Z" fill="#F0AFAC"/>
<path d="M73.2786 16.3891C73.468 15.898 73.5837 15.3748 73.6047 14.8409C73.6153 14.5847 73.5942 14.3178 73.4995 14.0829C73.3943 13.848 73.1944 13.6451 72.9419 13.6131C72.479 13.5383 72.0372 14.0295 71.6058 13.8693C71.3323 13.7839 71.185 13.4849 70.9536 13.3141C70.6485 13.1006 70.2066 13.1433 69.8805 13.3355C69.5649 13.5383 69.3334 13.8693 69.1651 14.211C69.137 14.2537 69.1125 14.3 69.0914 14.3498C69.3334 13.5917 69.7121 12.887 70.2592 12.3211C70.5748 12.0008 71.0588 11.4777 71.5006 11.8834C71.8163 12.1717 71.8268 12.6521 72.2266 12.8657C72.4685 12.9938 72.7421 12.7269 72.9314 12.5774C73.1524 12.4066 73.4575 12.2571 73.6889 12.4172C73.7626 12.4706 73.8152 12.556 73.8678 12.6415C74.1834 13.2394 74.2149 13.9654 74.0571 14.6274C73.9098 15.2573 73.6047 15.8339 73.2786 16.3891Z" fill="#F5D9D9"/>
<path d="M69.6665 21.9161C71.3808 22.2968 73.2361 22.0747 74.8636 21.4507C72.9649 21.9478 70.9034 21.7468 69.0914 20.9959C70.5453 20.3719 71.7714 19.4729 73.3012 19.071C73.7895 18.9335 74.2886 18.8489 74.7985 18.8171C74.8564 18.8171 74.9106 18.8206 74.9613 18.8277C75.3518 18.87 75.7424 18.9546 76.0571 19.1873C76.3609 19.4094 76.567 19.8113 76.4802 20.1709C76.4151 20.4565 76.1873 20.6998 76.209 20.9853C76.2307 21.4507 76.86 21.6834 76.9685 22.1382C77.0227 22.392 76.9142 22.6564 76.7298 22.8362C76.5453 23.016 76.3066 23.1218 76.0571 23.2064C75.5471 23.3862 75.0047 23.4708 74.4622 23.4708C74.4332 23.4638 74.4007 23.4567 74.3645 23.4497C72.737 23.1641 71.1529 22.6458 69.6665 21.9161Z" fill="#F0AFAC"/>
<path d="M74.3521 23.3461C74.8833 23.3461 75.4144 23.264 75.9137 23.0895C76.158 23.0074 76.3917 22.9048 76.5723 22.7303C76.7528 22.5559 76.8591 22.2993 76.8059 22.053C76.6997 21.6117 76.0836 21.3859 76.0624 20.9344C76.0411 20.6573 76.2642 20.4212 76.3279 20.1442C76.4129 19.7952 76.2111 19.4052 75.9137 19.1897C75.6056 18.9639 75.2232 18.8818 74.8408 18.8408C74.7912 18.834 74.7381 18.8305 74.6814 18.8305C75.4675 18.7792 76.2642 18.8716 76.9865 19.1692C77.4008 19.3334 78.07 19.59 77.8576 20.1339C77.7089 20.5136 77.2733 20.7086 77.2202 21.1396C77.199 21.3962 77.5389 21.5604 77.7514 21.6836C77.9851 21.817 78.2506 22.0428 78.1869 22.2993C78.1656 22.3917 78.1019 22.4738 78.0382 22.5456C77.6133 23.0485 76.944 23.3358 76.2748 23.4282C75.6375 23.5206 74.9895 23.4487 74.3521 23.3461Z" fill="#F5D9D9"/>
<path d="M67.7537 22.1985C67.7647 23.8779 68.4222 25.5677 69.4303 26.955C68.4879 25.2861 68.2139 23.3042 68.5536 21.4475C69.518 22.6679 70.7014 23.6067 71.4685 24.9523C71.7096 25.3695 71.9178 25.8285 72.0712 26.2979C72.0785 26.3466 72.0858 26.3952 72.0931 26.4439C72.1479 26.8194 72.1479 27.2054 71.9945 27.5496C71.8301 27.8938 71.4795 28.1755 71.085 28.1755C70.7891 28.1755 70.4932 28.019 70.2083 28.1024C69.7371 28.2276 69.6495 28.8639 69.2221 29.0725C68.981 29.1873 68.6852 29.1351 68.466 29.0099C68.2359 28.8743 68.0715 28.6761 67.929 28.4675C67.6332 28.0294 67.425 27.5392 67.3044 27.0385C67.2971 27.0037 67.2935 26.9689 67.2935 26.9342C67.2058 25.3487 67.3702 23.7423 67.7537 22.1985Z" fill="#F0AFAC"/>
<path d="M67.4728 27.0615C67.5942 27.5739 67.8041 28.0757 68.1022 28.5241C68.2458 28.7376 68.4114 28.9405 68.6433 29.0792C68.8642 29.2074 69.1624 29.2607 69.4053 29.1433C69.836 28.9298 69.9244 28.2786 70.3992 28.1504C70.6863 28.065 70.9845 28.2252 71.2827 28.2252C71.6802 28.2252 72.0336 27.9369 72.1993 27.5846C72.3539 27.2323 72.3539 26.8373 72.2987 26.453C72.2913 26.4031 72.2839 26.3533 72.2766 26.3035C72.5085 27.0615 72.6079 27.8622 72.4643 28.6415C72.387 29.0792 72.2766 29.7945 71.6582 29.7198C71.2275 29.6664 70.9293 29.2821 70.4544 29.3355C70.1784 29.3782 70.09 29.7518 70.0127 29.976C69.9354 30.2429 69.7587 30.5525 69.4716 30.5525C69.3722 30.5525 69.2728 30.5205 69.1845 30.4778C68.555 30.1682 68.0912 29.5917 67.8372 28.9511C67.5942 28.3533 67.5059 27.702 67.4728 27.0615Z" fill="#F5D9D9"/>
<path d="M112.346 20.5756C110.605 20.7661 108.939 21.581 107.62 22.7027C109.231 21.6127 111.243 21.1365 113.2 21.2529C112.043 22.3111 111.2 23.5599 109.902 24.4382C109.491 24.7133 109.047 24.9673 108.571 25.1578C108.521 25.1719 108.471 25.186 108.42 25.2001C108.052 25.2954 107.641 25.3377 107.274 25.2213C106.906 25.1049 106.571 24.798 106.538 24.4276C106.506 24.1419 106.636 23.835 106.517 23.5704C106.333 23.1366 105.673 23.126 105.413 22.7239C105.273 22.5122 105.284 22.2265 105.392 22.0042C105.511 21.7714 105.705 21.5915 105.9 21.4328C106.322 21.0942 106.798 20.8402 107.306 20.6603C107.342 20.6603 107.378 20.6568 107.414 20.6497C109.037 20.3957 110.702 20.364 112.346 20.5756Z" fill="#F0AFAC"/>
<path d="M107.316 20.6381C106.822 20.8223 106.359 21.0824 105.949 21.4291C105.759 21.5916 105.57 21.7758 105.454 22.0141C105.349 22.2417 105.339 22.5342 105.475 22.7509C105.728 23.1626 106.369 23.1735 106.548 23.6177C106.664 23.8885 106.538 24.2027 106.569 24.4953C106.601 24.8745 106.927 25.1887 107.284 25.3079C107.642 25.4271 108.042 25.3837 108.399 25.2862C108.449 25.2718 108.498 25.2573 108.547 25.2429C107.831 25.5571 107.064 25.7413 106.285 25.6871C105.843 25.6654 105.128 25.6329 105.139 25.0262C105.149 24.5928 105.496 24.2569 105.391 23.8127C105.328 23.5418 104.949 23.4985 104.718 23.4552C104.444 23.401 104.129 23.2601 104.097 22.9784C104.087 22.8809 104.118 22.7834 104.15 22.6859C104.381 22.0358 104.897 21.5266 105.496 21.2124C106.064 20.909 106.685 20.7465 107.316 20.6381Z" fill="#F5D9D9"/>
<path d="M113.2 19.5855C112.325 18.1183 110.912 16.9594 109.361 16.2364C110.996 17.2358 112.251 18.8413 112.926 20.6381C111.502 20.0427 110.026 19.8088 108.707 19.0114C108.285 18.7562 107.885 18.4585 107.516 18.1183C107.48 18.0829 107.449 18.0439 107.421 18.0013C107.189 17.7036 106.978 17.3634 106.935 16.9806C106.893 16.5979 107.03 16.1832 107.357 15.9918C107.61 15.843 107.937 15.8324 108.127 15.6197C108.444 15.2795 108.191 14.6734 108.444 14.2801C108.581 14.0674 108.844 13.9611 109.098 13.9611C109.351 13.9611 109.604 14.0674 109.825 14.1737C110.3 14.4183 110.722 14.7372 111.08 15.12C111.102 15.1484 111.123 15.1767 111.144 15.2051C112.03 16.5554 112.726 18.0332 113.2 19.5855Z" fill="#F0AFAC"/>
<path d="M111.177 15.0323C110.808 14.6525 110.373 14.3359 109.885 14.0932C109.656 13.9877 109.396 13.8822 109.135 13.8822C108.874 13.8822 108.603 13.9877 108.462 14.1987C108.201 14.5891 108.462 15.1906 108.136 15.5282C107.94 15.7392 107.604 15.7498 107.343 15.8975C107.006 16.0874 106.865 16.4989 106.909 16.8788C106.952 17.2586 107.169 17.5963 107.408 17.8917C107.437 17.9339 107.47 17.9726 107.506 18.0078C106.909 17.4802 106.42 16.8471 106.127 16.1191C105.964 15.7076 105.692 15.0429 106.257 14.8107C106.648 14.6419 107.104 14.8213 107.473 14.5469C107.691 14.3781 107.571 14.0194 107.506 13.7872C107.441 13.5129 107.43 13.1753 107.669 13.0275C107.756 12.9853 107.864 12.9642 107.962 12.9537C108.657 12.9115 109.341 13.1858 109.885 13.5973C110.406 13.9877 110.808 14.5047 111.177 15.0323Z" fill="#F5D9D9"/>
<path d="M115.126 20.0501C116.042 18.6048 116.485 16.8144 116.495 15.0671C116.284 17.0085 115.388 18.8421 114.109 20.2335C114.059 18.6587 113.686 17.1811 113.848 15.6172C113.898 15.121 113.999 14.6141 114.139 14.1395C114.16 14.0892 114.183 14.0424 114.21 13.9993C114.371 13.6541 114.593 13.3198 114.895 13.1148C115.207 12.9207 115.63 12.8776 115.922 13.0933C116.143 13.2659 116.284 13.5679 116.546 13.6541C116.959 13.8159 117.381 13.3198 117.824 13.3953C118.066 13.4276 118.257 13.6326 118.358 13.8699C118.449 14.1071 118.469 14.3768 118.459 14.6356C118.439 15.1749 118.328 15.7034 118.147 16.1996C118.126 16.2283 118.106 16.2571 118.086 16.2859C117.271 17.688 116.274 18.95 115.126 20.0501Z" fill="#F0AFAC"/>
<path d="M118.399 16.3891C118.589 15.898 118.704 15.3748 118.725 14.8409C118.736 14.5847 118.715 14.3178 118.62 14.0829C118.515 13.848 118.315 13.6451 118.063 13.6131C117.6 13.5383 117.158 14.0295 116.726 13.8693C116.453 13.7839 116.306 13.4849 116.074 13.3141C115.769 13.1006 115.327 13.1433 115.001 13.3355C114.685 13.5383 114.454 13.8693 114.286 14.211C114.258 14.2537 114.233 14.3 114.212 14.3498C114.454 13.5917 114.833 12.887 115.38 12.3211C115.695 12.0008 116.179 11.4777 116.621 11.8834C116.937 12.1717 116.947 12.6521 117.347 12.8657C117.589 12.9938 117.863 12.7269 118.052 12.5774C118.273 12.4066 118.578 12.2571 118.81 12.4172C118.883 12.4706 118.936 12.556 118.988 12.6415C119.304 13.2394 119.336 13.9654 119.178 14.6274C119.03 15.2573 118.725 15.8339 118.399 16.3891Z" fill="#F5D9D9"/>
<path d="M114.787 21.9161C116.501 22.2968 118.357 22.0747 119.984 21.4507C118.085 21.9478 116.024 21.7468 114.212 20.9959C115.666 20.3719 116.892 19.4729 118.422 19.071C118.91 18.9335 119.409 18.8489 119.919 18.8171C119.977 18.8171 120.031 18.8206 120.082 18.8277C120.472 18.87 120.863 18.9546 121.178 19.1873C121.482 19.4094 121.688 19.8113 121.601 20.1709C121.536 20.4565 121.308 20.6998 121.33 20.9853C121.351 21.4507 121.981 21.6834 122.089 22.1382C122.143 22.392 122.035 22.6564 121.85 22.8362C121.666 23.016 121.427 23.1218 121.178 23.2064C120.668 23.3862 120.125 23.4708 119.583 23.4708C119.554 23.4638 119.521 23.4567 119.485 23.4497C117.858 23.1641 116.274 22.6458 114.787 21.9161Z" fill="#F0AFAC"/>
<path d="M119.473 23.3461C120.004 23.3461 120.535 23.264 121.034 23.0895C121.279 23.0074 121.512 22.9048 121.693 22.7303C121.873 22.5559 121.98 22.2993 121.927 22.053C121.82 21.6117 121.204 21.3859 121.183 20.9344C121.162 20.6573 121.385 20.4212 121.449 20.1442C121.534 19.7952 121.332 19.4052 121.034 19.1897C120.726 18.9639 120.344 18.8818 119.961 18.8408C119.912 18.834 119.859 18.8305 119.802 18.8305C120.588 18.7792 121.385 18.8716 122.107 19.1692C122.521 19.3334 123.191 19.59 122.978 20.1339C122.829 20.5136 122.394 20.7086 122.341 21.1396C122.32 21.3962 122.66 21.5604 122.872 21.6836C123.106 21.817 123.371 22.0428 123.308 22.2993C123.286 22.3917 123.223 22.4738 123.159 22.5456C122.734 23.0485 122.065 23.3358 121.395 23.4282C120.758 23.5206 120.11 23.4487 119.473 23.3461Z" fill="#F5D9D9"/>
<path d="M112.874 22.1985C112.885 23.8779 113.543 25.5677 114.551 26.955C113.609 25.2861 113.335 23.3042 113.674 21.4475C114.639 22.6679 115.822 23.6067 116.589 24.9523C116.83 25.3695 117.038 25.8285 117.192 26.2979C117.199 26.3466 117.206 26.3952 117.214 26.4439C117.269 26.8194 117.269 27.2054 117.115 27.5496C116.951 27.8938 116.6 28.1755 116.206 28.1755C115.91 28.1755 115.614 28.019 115.329 28.1024C114.858 28.2276 114.77 28.8639 114.343 29.0725C114.102 29.1873 113.806 29.1351 113.587 29.0099C113.356 28.8743 113.192 28.6761 113.05 28.4675C112.754 28.0294 112.546 27.5392 112.425 27.0385C112.418 27.0037 112.414 26.9689 112.414 26.9342C112.326 25.3487 112.491 23.7423 112.874 22.1985Z" fill="#F0AFAC"/>
<path d="M112.593 27.0615C112.715 27.5739 112.925 28.0757 113.223 28.5241C113.366 28.7376 113.532 28.9405 113.764 29.0792C113.985 29.2074 114.283 29.2607 114.526 29.1433C114.957 28.9298 115.045 28.2786 115.52 28.1504C115.807 28.065 116.105 28.2252 116.403 28.2252C116.801 28.2252 117.154 27.9369 117.32 27.5846C117.475 27.2323 117.475 26.8373 117.419 26.453C117.412 26.4031 117.405 26.3533 117.397 26.3035C117.629 27.0615 117.729 27.8622 117.585 28.6415C117.508 29.0792 117.397 29.7945 116.779 29.7198C116.348 29.6664 116.05 29.2821 115.575 29.3355C115.299 29.3782 115.211 29.7518 115.133 29.976C115.056 30.2429 114.879 30.5525 114.592 30.5525C114.493 30.5525 114.393 30.5205 114.305 30.4778C113.676 30.1682 113.212 29.5917 112.958 28.9511C112.715 28.3533 112.627 27.702 112.593 27.0615Z" fill="#F5D9D9"/>
</g>
</g>
</svg>
