<svg width="48" height="48" viewBox="0 0 48 48" fill="none" xmlns="http://www.w3.org/2000/svg">
<rect width="48" height="48" fill="#121212"/>
<rect x="0.5" y="0.5" width="47" height="47" stroke="#121212" stroke-opacity="0.5"/>
<path d="M19.833 31.5V29" stroke="white" stroke-width="1.5" stroke-linecap="round" stroke-linejoin="round"/>
<path d="M28.167 31.5V26.5" stroke="white" stroke-width="1.5" stroke-linecap="round" stroke-linejoin="round"/>
<path d="M28.167 19V16.5" stroke="white" stroke-width="1.5" stroke-linecap="round" stroke-linejoin="round"/>
<path d="M19.833 21.5V16.5" stroke="white" stroke-width="1.5" stroke-linecap="round" stroke-linejoin="round"/>
<path d="M19.833 29C19.0564 29 18.6682 29 18.3619 28.8732C17.9535 28.704 17.629 28.3795 17.4599 27.9712C17.333 27.6648 17.333 27.2766 17.333 26.5C17.333 25.7234 17.333 25.3352 17.4599 25.0288C17.629 24.6205 17.9535 24.296 18.3619 24.1268C18.6682 24 19.0564 24 19.833 24C20.6096 24 20.9979 24 21.3041 24.1268C21.7125 24.296 22.037 24.6205 22.2061 25.0288C22.333 25.3352 22.333 25.7234 22.333 26.5C22.333 27.2766 22.333 27.6648 22.2061 27.9712C22.037 28.3795 21.7125 28.704 21.3041 28.8732C20.9979 29 20.6096 29 19.833 29Z" stroke="white" stroke-width="1.5"/>
<path d="M28.167 24C27.3904 24 27.0022 24 26.6958 23.8732C26.2875 23.704 25.963 23.3795 25.7938 22.9712C25.667 22.6648 25.667 22.2766 25.667 21.5C25.667 20.7234 25.667 20.3352 25.7938 20.0289C25.963 19.6205 26.2875 19.296 26.6958 19.1269C27.0022 19 27.3904 19 28.167 19C28.9436 19 29.3318 19 29.6382 19.1269C30.0465 19.296 30.371 19.6205 30.5402 20.0289C30.667 20.3352 30.667 20.7234 30.667 21.5C30.667 22.2766 30.667 22.6648 30.5402 22.9712C30.371 23.3795 30.0465 23.704 29.6382 23.8732C29.3318 24 28.9436 24 28.167 24Z" stroke="white" stroke-width="1.5"/>
</svg>
