<svg width="24" height="25" viewBox="0 0 24 25" fill="none" xmlns="http://www.w3.org/2000/svg">
<path d="M14.625 12.158C14.625 12.6771 14.471 13.1847 14.1826 13.6163C13.8942 14.048 13.4842 14.3845 13.0045 14.5831C12.5249 14.7818 11.9971 14.8338 11.4879 14.7325C10.9787 14.6312 10.511 14.3812 10.1438 14.0141C9.77673 13.647 9.52673 13.1793 9.42544 12.6701C9.32415 12.1609 9.37614 11.6331 9.57482 11.1534C9.7735 10.6738 10.11 10.2638 10.5416 9.97535C10.9733 9.68691 11.4808 9.53296 12 9.53296C12.6962 9.53296 13.3639 9.80952 13.8562 10.3018C14.3484 10.7941 14.625 11.4618 14.625 12.158ZM4.5 9.53296C3.98083 9.53296 3.47331 9.68691 3.04163 9.97535C2.60995 10.2638 2.2735 10.6738 2.07482 11.1534C1.87614 11.6331 1.82415 12.1609 1.92544 12.6701C2.02673 13.1793 2.27673 13.647 2.64385 14.0141C3.01096 14.3812 3.47869 14.6312 3.98789 14.7325C4.49709 14.8338 5.02489 14.7818 5.50455 14.5831C5.9842 14.3845 6.39417 14.048 6.68261 13.6163C6.97105 13.1847 7.125 12.6771 7.125 12.158C7.125 11.4618 6.84844 10.7941 6.35616 10.3018C5.86387 9.80952 5.19619 9.53296 4.5 9.53296ZM19.5 9.53296C18.9808 9.53296 18.4733 9.68691 18.0416 9.97535C17.61 10.2638 17.2735 10.6738 17.0748 11.1534C16.8761 11.6331 16.8242 12.1609 16.9254 12.6701C17.0267 13.1793 17.2767 13.647 17.6438 14.0141C18.011 14.3812 18.4787 14.6312 18.9879 14.7325C19.4971 14.8338 20.0249 14.7818 20.5045 14.5831C20.9842 14.3845 21.3942 14.048 21.6826 13.6163C21.971 13.1847 22.125 12.6771 22.125 12.158C22.125 11.8132 22.0571 11.4719 21.9252 11.1534C21.7933 10.8349 21.5999 10.5456 21.3562 10.3018C21.1124 10.0581 20.823 9.86469 20.5045 9.73277C20.1861 9.60086 19.8447 9.53296 19.5 9.53296Z" fill="black" fill-opacity="0.4"/>
</svg>
